<?xml version="1.0" encoding="UTF-8"?> <svg xmlns="http://www.w3.org/2000/svg" width="110" height="99" viewBox="0 0 110 99" fill="none"> <path d="M76.5399 68.9587C76.9359 68.9752 77.2824 68.4417 77.3044 67.7707C77.3319 67.0997 77.0294 66.5442 76.6334 66.5277C76.2374 66.5112 75.8909 67.0447 75.8689 67.7157C75.8414 68.3867 76.1439 68.9422 76.5399 68.9587Z" fill="#4F8782"></path> <path d="M69.2587 68.6726C69.6547 68.6891 70.0012 68.1556 70.0232 67.4846C70.0507 66.8136 69.7482 66.2581 69.3522 66.2416C68.9562 66.2251 68.6097 66.7586 68.5877 67.4296C68.5602 68.1061 68.8627 68.6616 69.2587 68.6726Z" fill="#4F8782"></path> <path d="M71.2369 73.0724C71.2094 73.7929 71.6989 74.4144 72.3754 74.5849C72.4689 74.6069 72.5734 74.6234 72.6724 74.6289C73.0739 74.6454 73.4534 74.5024 73.7449 74.2329C74.0364 73.9634 74.2069 73.5949 74.2234 73.1934C74.2234 73.1659 74.2234 73.1439 74.2234 73.1164C74.4599 72.8194 74.6084 72.4509 74.6194 72.0439C74.6579 71.0264 73.8659 70.1629 72.8429 70.1244C71.8254 70.0859 70.9619 70.8834 70.9234 71.9009C70.9069 72.3079 71.0279 72.6874 71.2369 73.0009C71.2424 73.0229 71.2369 73.0504 71.2369 73.0724ZM73.4094 73.8644C73.2114 74.0459 72.9584 74.1394 72.6944 74.1284C72.3094 74.1119 71.9849 73.8809 71.8309 73.5564C71.9849 73.6499 72.1554 73.7214 72.3369 73.7654C72.4579 73.7929 72.5789 73.8149 72.7054 73.8149C73.0244 73.8259 73.3324 73.7544 73.6019 73.6224C73.5469 73.7104 73.4864 73.7929 73.4094 73.8644ZM72.7219 73.3199C72.3424 73.3034 72.0069 73.1329 71.7704 72.8689C71.8254 72.6654 71.9464 72.4839 72.1114 72.3574C72.1389 72.4069 72.1719 72.4509 72.2104 72.4949C72.3149 72.6049 72.4469 72.6819 72.5899 72.7204C72.6394 72.7314 72.6944 72.7424 72.7439 72.7424C72.9474 72.7479 73.1454 72.6764 73.2994 72.5389C73.3434 72.5004 73.3764 72.4564 73.4094 72.4124C73.5634 72.5554 73.6679 72.7424 73.7064 72.9514C73.4534 73.1879 73.1014 73.3309 72.7219 73.3199ZM72.5019 71.9614C72.5074 71.8899 72.5349 71.8239 72.5899 71.7744C72.6449 71.7249 72.7109 71.6974 72.7879 71.7029C72.8044 71.7029 72.8264 71.7084 72.8429 71.7084C72.8924 71.7194 72.9419 71.7469 72.9749 71.7854C73.0244 71.8404 73.0519 71.9064 73.0464 71.9834C73.0409 72.0549 73.0134 72.1209 72.9584 72.1704C72.9034 72.2199 72.8374 72.2474 72.7604 72.2419C72.6889 72.2364 72.6229 72.2089 72.5734 72.1539C72.5239 72.0989 72.5019 72.0329 72.5019 71.9614ZM71.8584 70.9769C72.1224 70.7294 72.4689 70.6029 72.8264 70.6194C72.9199 70.6249 73.0079 70.6359 73.0959 70.6579C73.7064 70.8064 74.1464 71.3729 74.1244 72.0219C74.1189 72.1649 74.0914 72.3024 74.0474 72.4289C73.9264 72.2089 73.7559 72.0164 73.5414 71.8789C73.5249 71.7194 73.4534 71.5654 73.3434 71.4444C73.2059 71.2959 73.0134 71.2079 72.8099 71.1969C72.6064 71.1914 72.4084 71.2629 72.2544 71.4004C72.1334 71.5104 72.0509 71.6589 72.0234 71.8184C71.7979 71.9394 71.6109 72.1154 71.4789 72.3244C71.4404 72.1924 71.4239 72.0549 71.4294 71.9119C71.4404 71.5544 71.5944 71.2244 71.8584 70.9769Z" fill="#4F8782"></path> <path d="M67.0126 60.4774C66.7046 60.7469 66.4186 61.0879 66.1106 61.5554C65.8686 61.9184 65.6816 62.3144 65.5551 62.7214C65.3791 63.2714 65.3021 63.7829 65.3186 64.2889V64.2944C65.3241 64.3769 65.3351 64.4649 65.3406 64.5474C65.3571 64.7564 65.3791 64.9764 65.4066 65.1909C65.4231 65.3009 65.4561 65.3779 65.5221 65.4219C65.5496 65.4384 65.5881 65.4604 65.6486 65.4604C65.6651 65.4604 65.6871 65.4604 65.7091 65.4549C65.8961 65.4164 65.8796 65.2459 65.8741 65.1579C65.8741 65.1469 65.8741 65.1304 65.8686 65.1194C65.8631 65.0314 65.8576 64.9489 65.8521 64.8609C65.8356 64.6024 65.8136 64.3329 65.8081 64.0744C65.7916 63.5629 65.9071 63.0294 66.1766 62.3969C66.2701 62.1769 66.4076 61.9404 66.5891 61.7039C66.8366 61.3794 67.0896 61.0824 67.3426 60.8294C67.5021 60.6644 67.7001 60.5269 67.8871 60.3894C67.9201 60.3619 67.9586 60.3399 67.9916 60.3124C68.1951 60.1639 68.3986 60.0264 68.6076 59.9054C68.7231 59.8339 68.8496 59.7734 68.9651 59.7074C69.0696 59.6524 69.1851 59.5919 69.2896 59.5314C69.4546 59.4379 69.6141 59.3334 69.7681 59.2344C69.8286 59.1959 69.8891 59.1574 69.9496 59.1189C70.0376 59.0639 70.1256 59.0144 70.2081 58.9594C70.4061 58.8384 70.6151 58.7174 70.8076 58.5744C71.1926 58.2829 71.5611 57.9584 71.9076 57.6559C72.1331 57.4579 72.3091 57.1939 72.4301 56.8804C72.4796 56.7539 72.4466 56.5999 72.4081 56.4679C72.3916 56.4019 72.3201 56.3689 72.2596 56.3414C72.2376 56.3304 72.2211 56.3249 72.2046 56.3139L72.1331 56.2754L72.0946 56.3469C72.0836 56.3634 72.0726 56.3799 72.0671 56.3964C72.0396 56.4404 72.0121 56.4844 71.9956 56.5394C71.9846 56.5834 71.9846 56.6274 71.9846 56.6659C71.9846 56.7044 71.9846 56.7429 71.9736 56.7649C71.8581 57.0124 71.6931 57.2324 71.4841 57.4084L71.4401 57.4469C71.1926 57.6559 70.9341 57.8759 70.6701 58.0794C70.3841 58.2994 70.1256 58.4809 69.8726 58.6349C69.6966 58.7449 69.5041 58.8494 69.3226 58.9484C69.1961 59.0199 69.0586 59.0914 68.9321 59.1684L68.8166 59.2344C68.5416 59.3939 68.2556 59.5644 67.9861 59.7459C67.6671 59.9659 67.3261 60.2079 67.0126 60.4774Z" fill="#4F8782"></path> <path d="M81.9744 64.5254C81.9689 63.9149 81.9634 63.2879 81.8204 62.6719C81.7819 62.5069 81.7489 62.3364 81.7159 62.1659C81.6829 61.9844 81.6444 61.7974 81.6004 61.6104C81.5564 61.4124 81.4849 61.2034 81.3969 60.9834C81.2594 60.6479 81.1274 60.3454 80.9844 60.0594C80.8634 59.8119 80.7369 59.5644 80.5774 59.3389C80.3409 58.9979 80.0989 58.6679 79.8239 58.3764C79.5324 58.0684 79.2079 57.7934 78.8944 57.5294L78.8064 57.4524C78.6304 57.3039 78.4379 57.1884 78.2509 57.0729C78.0639 56.9574 77.8659 56.8474 77.6734 56.7429L77.5194 56.6549C77.4754 56.6329 77.4314 56.6109 77.3874 56.5834C77.3379 56.5614 77.2939 56.5394 77.2499 56.5119C77.2774 56.4624 77.3049 56.4019 77.3049 56.3249L77.3104 56.3084C77.4039 55.5164 77.4699 54.7354 77.2114 53.9599L77.1784 53.8609C77.0739 53.5474 76.9694 53.2229 76.8044 52.9259C76.6229 52.5904 76.3974 52.2879 76.1444 52.0459C75.8144 51.7269 75.4349 51.4189 75.0224 51.1384C74.7419 50.9459 74.4119 50.8249 74.1314 50.7314C73.7794 50.6159 73.4109 50.5004 73.0204 50.4564C72.4649 50.3959 71.8159 50.3629 71.1779 50.5939C71.0844 50.6269 70.9909 50.6599 70.8864 50.6929C70.6389 50.7754 70.3804 50.8634 70.1384 50.9844C69.7919 51.1604 69.4729 51.4024 69.2089 51.6114C68.9999 51.7764 68.8074 51.9799 68.6424 52.1999C68.4774 52.4254 68.3399 52.6784 68.2409 52.9259C68.1199 53.2504 67.9934 53.5914 67.9494 53.9434C67.8449 54.8124 67.9494 55.6319 68.2574 56.3579C68.2574 56.3634 68.2574 56.3634 68.2574 56.3689C68.1419 56.4404 68.0154 56.5064 67.8889 56.5724L67.7404 56.6494C67.6964 56.6714 67.6579 56.6934 67.6029 56.7209C67.5094 56.7704 67.4104 56.8199 67.3169 56.8749C67.1244 56.9904 66.8989 57.1279 66.6789 57.2874C66.6019 57.3424 66.5194 57.3974 66.4424 57.4469C66.1839 57.6229 65.9199 57.7989 65.6834 58.0134C65.3314 58.3269 64.9849 58.6844 64.5889 59.1409C64.3854 59.3719 64.2204 59.6359 64.0609 59.8944L64.0059 59.9879C63.8574 60.2244 63.7364 60.4664 63.6429 60.6534L63.6044 60.7304C63.4724 61.0054 63.3349 61.2859 63.2304 61.5774C63.1369 61.8359 63.0764 62.0999 63.0214 62.3639L63.0049 62.4409C62.7794 63.4529 62.7849 64.4594 63.0214 65.4219C63.0819 65.6639 63.1369 65.9004 63.2139 66.1314C63.2689 66.3184 63.3459 66.5329 63.4449 66.7474C63.5549 66.9784 63.6814 67.2149 63.8519 67.5009C63.9949 67.7429 64.1324 67.9574 64.2754 68.1609C64.3249 68.2269 64.3744 68.2874 64.4239 68.3479C64.4844 68.4194 64.5449 68.4909 64.5889 68.5624C64.8364 72.9844 68.4939 76.4494 72.9324 76.4494C75.1764 76.4494 77.2554 75.6354 78.7899 74.1504C80.2914 72.6984 81.1439 70.7129 81.1934 68.5624H81.1989C81.2924 68.4194 81.3914 68.2764 81.4519 68.1059C81.5949 67.7099 81.7049 67.3084 81.7874 66.9234C81.9359 66.1864 82.0074 65.4659 81.9964 64.7784L81.9744 64.5254ZM68.3564 57.1114C68.4554 57.0619 68.5489 57.0124 68.6589 56.9519C68.8129 56.8694 68.9779 56.7814 69.1374 56.7044C69.2199 56.6659 69.3024 56.6274 69.3959 56.5889C69.4674 56.5614 69.5389 56.5284 69.6104 56.4954C69.7424 56.4349 69.8744 56.3634 70.0009 56.2974L70.1109 56.2424C70.1549 56.2204 70.1989 56.1984 70.2429 56.1709C70.3199 56.1269 70.3914 56.0884 70.4629 56.0554C70.9469 55.8409 71.4034 55.5439 71.8159 55.1754C72.1349 54.8894 72.3439 54.5869 72.4484 54.2569C72.4649 54.2129 72.4814 54.1689 72.4979 54.1194C72.5254 54.0424 72.5584 53.9654 72.5804 53.8829C72.6079 53.7674 72.5969 53.6629 72.5364 53.5859C72.4979 53.5309 72.4264 53.4649 72.2889 53.4484C72.2724 53.4484 72.2559 53.4484 72.2394 53.4484C72.1349 53.4484 71.9534 53.4869 71.8984 53.7509C71.8269 54.0699 71.6619 54.3669 71.3979 54.6199C71.1339 54.8784 70.8314 55.0929 70.4959 55.2634C70.3529 55.3349 70.2099 55.4119 70.0669 55.4834C69.9074 55.5659 69.7479 55.6484 69.5829 55.7309C69.4399 55.8024 69.2914 55.8684 69.1429 55.9399L68.9394 56.0334C68.9119 56.0444 68.8844 56.0609 68.8569 56.0774C68.8514 56.0609 68.8404 56.0389 68.8349 56.0169L68.7964 55.9014C68.7359 55.7034 68.6699 55.4999 68.6369 55.2964C68.5489 54.7684 68.5489 54.2954 68.6259 53.8499C68.6809 53.5309 68.8074 53.2119 69.0109 52.8709C69.2034 52.5409 69.4839 52.2494 69.8854 51.9469C70.0009 51.8589 70.1329 51.7874 70.2814 51.7159C70.3749 51.6664 70.4684 51.6169 70.5619 51.5619C70.8754 51.3694 71.2219 51.2814 71.5244 51.2154C71.7994 51.1549 72.0854 51.1384 72.3714 51.1164C72.8114 51.0834 73.2789 51.1549 73.7629 51.3144C73.9774 51.3859 74.1864 51.4959 74.3954 51.6059C74.4614 51.6389 74.5274 51.6774 74.5989 51.7104C75.0114 51.9194 75.3634 52.1889 75.6384 52.5189C75.8584 52.7774 76.0564 53.0634 76.2324 53.3714C76.6504 54.0919 76.7824 54.9334 76.6504 56.0114C76.6174 56.2644 76.5404 56.5229 76.4634 56.7759C76.4414 56.8474 76.4194 56.9244 76.3974 56.9959C76.3369 57.2049 76.2709 57.3919 76.1884 57.5569C76.0839 57.7879 75.9739 58.0079 75.8419 58.2004C75.5944 58.5524 75.3579 58.8549 75.1159 59.1299C74.9839 59.2839 74.8189 59.4214 74.6594 59.5534C74.6099 59.5974 74.5604 59.6359 74.5109 59.6799C74.2854 59.8779 74.0544 60.0649 73.8289 60.2464C73.5979 60.4279 73.3614 60.6149 73.1249 60.7964L72.3164 61.4289C72.1404 61.5719 71.9534 61.7149 71.7719 61.8579C71.6839 61.9294 71.5849 61.9954 71.4914 62.0614C71.4144 62.1164 71.3374 62.1714 71.2659 62.2264C71.1449 62.3199 71.0184 62.4134 70.8974 62.5069L70.8589 62.5344C70.7434 62.6224 70.6224 62.7159 70.5069 62.8039C70.3584 62.9139 70.2154 63.0239 70.0669 63.1339L69.6049 63.4749C69.4289 63.6069 69.2419 63.7444 69.0659 63.8819L68.9229 63.9919C68.6644 64.1899 68.3729 64.4154 68.0924 64.6409C67.8284 64.8554 67.5534 65.0919 67.2784 65.3394L67.1299 65.4714C66.7999 65.7684 66.4644 66.0764 66.1454 66.3954C65.8979 66.6429 65.6669 66.9179 65.4469 67.1819L65.2709 67.3854C65.1829 67.4844 65.1059 67.5889 65.0179 67.6989C64.9794 67.7539 64.9354 67.8034 64.8914 67.8584C64.8254 67.7649 64.7649 67.6659 64.6879 67.5559C64.5834 67.4019 64.4734 67.2369 64.3689 67.0774C64.3029 66.9674 64.2424 66.8464 64.1874 66.7254L64.1269 66.5989C64.0499 66.4394 63.9729 66.2744 63.9069 66.1149C63.8354 65.9389 63.7639 65.7464 63.7144 65.5539C63.6429 65.2899 63.5879 65.0644 63.5604 64.8389C63.5329 64.6189 63.5164 64.3879 63.5054 64.1569C63.4999 64.0579 63.4944 63.9589 63.4889 63.8709C63.4834 63.3209 63.5604 62.7654 63.7254 62.2154C63.8299 61.8634 63.9784 61.5169 64.1269 61.1979C64.2699 60.8899 64.4404 60.5324 64.6494 60.2024C64.8364 59.9109 65.0564 59.6194 65.3149 59.3389C65.5789 59.0474 65.8704 58.7614 66.2114 58.4644C66.3984 58.3049 66.6074 58.1564 66.8164 58.0134L66.9759 57.9034C67.1574 57.7769 67.3609 57.6449 67.5974 57.5019C67.6909 57.4414 67.7954 57.3919 67.9054 57.3369L67.9879 57.2929C68.0429 57.2654 68.0979 57.2379 68.1529 57.2104C68.2299 57.1774 68.2959 57.1444 68.3564 57.1114ZM65.6999 67.9629L65.8649 67.7594C66.3379 67.1709 66.8934 66.5989 67.6689 65.9004C67.9109 65.6804 68.1804 65.4659 68.4334 65.2569C68.5379 65.1689 68.6424 65.0864 68.7469 64.9984L68.9284 64.8444C69.0824 64.7124 69.2474 64.5749 69.4124 64.4539C69.5554 64.3439 69.6984 64.2394 69.8469 64.1404L69.8634 64.1294C69.9679 64.0579 70.0724 63.9809 70.1714 63.9039C70.5399 63.6344 70.9084 63.3539 71.2659 63.0844C71.3319 63.0349 71.3924 62.9854 71.4584 62.9359C71.5574 62.8589 71.6619 62.7764 71.7554 62.7104C71.7609 62.7104 71.7774 62.7049 71.8379 62.6994C72.6354 62.6719 73.3394 62.7324 73.9884 62.8809C74.4119 62.9799 74.8299 63.1284 75.2424 63.2769L75.2644 63.2824C75.5999 63.4034 75.8804 63.5244 76.1224 63.6619C76.3204 63.7719 76.5074 63.8984 76.6889 64.0194L76.7054 64.0304C76.7989 64.0964 76.8979 64.1624 76.9969 64.2229C77.4479 64.5144 77.8329 64.8884 78.1849 65.2514C78.7019 65.7849 79.0979 66.3074 79.4059 66.8409L79.4334 66.8904C79.5709 67.1324 79.7139 67.3799 79.8459 67.6329L79.9944 67.8859L80.0054 67.8749L80.4399 68.5349C80.4014 70.4929 79.6314 72.2969 78.2619 73.6169C76.8649 74.9644 74.9674 75.7069 72.9159 75.7069C68.8569 75.7069 65.5184 72.5389 65.3094 68.4909C65.3754 68.3864 65.5129 68.1994 65.6999 67.9629ZM80.3079 67.0169C80.2749 66.9619 80.2419 66.9014 80.2089 66.8464C80.1154 66.6814 80.0109 66.5109 79.8899 66.3184C79.7084 66.0324 79.5434 65.7794 79.3509 65.5319C79.1694 65.2954 78.9549 65.0589 78.6854 64.7784C78.4434 64.5309 78.1794 64.2669 77.8879 64.0249C77.6789 63.8489 77.4479 63.6949 77.2279 63.5519L77.0959 63.4639C76.8649 63.3099 76.6284 63.1669 76.4249 63.0459C76.3039 62.9744 76.1774 62.9084 76.0509 62.8589C75.9684 62.8259 75.8859 62.7929 75.7924 62.7544C75.3854 62.5839 74.9674 62.4134 74.5164 62.3254C74.3624 62.2979 74.2084 62.2594 74.0434 62.2264C73.8234 62.1769 73.5924 62.1274 73.3614 62.0889C73.1524 62.0559 72.9434 62.0449 72.7344 62.0339C72.7069 62.0339 72.6739 62.0339 72.6464 62.0284C72.7069 61.9844 72.7729 61.9349 72.8334 61.8909L72.8829 61.8524C73.1469 61.6544 73.4439 61.4344 73.7299 61.2089C74.0214 60.9779 74.3129 60.7304 74.5989 60.4884C74.7199 60.3839 74.8409 60.2849 74.9619 60.1804C75.0004 60.1474 75.0389 60.1144 75.0884 60.0704C75.1764 59.9879 75.2644 59.9109 75.3524 59.8614C75.3689 59.8559 75.4239 59.8559 75.4459 59.8724C75.7099 60.0044 75.9849 60.1474 76.2379 60.3179C76.5789 60.5489 76.8429 60.7579 77.0739 60.9724C77.5084 61.3739 77.8879 61.7589 78.2399 62.1439C78.4599 62.3859 78.6634 62.6499 78.8669 62.9139C78.9439 63.0129 79.0209 63.1174 79.1034 63.2164C79.1419 63.2659 79.1804 63.3209 79.2244 63.3814C79.3014 63.4859 79.3784 63.5959 79.4719 63.6949C79.5819 63.8049 79.7524 63.8434 79.8734 63.8544C79.9669 63.8654 80.0549 63.8324 80.1209 63.7719C80.1924 63.7059 80.2309 63.6014 80.2254 63.4969V63.4254C80.2254 63.3319 80.2199 63.2274 80.1869 63.1229C80.1264 62.9414 80.0494 62.7654 79.9724 62.5949L79.9339 62.5124C79.9009 62.4354 79.8624 62.3584 79.8184 62.2759C79.7964 62.2264 79.7689 62.1769 79.7469 62.1219C79.4829 61.5499 79.1254 61.0329 78.8064 60.5874C78.4819 60.1364 78.0914 59.7514 77.7504 59.4269C77.6294 59.3114 77.4864 59.2069 77.3159 59.0969C77.2004 59.0254 76.9859 59.0639 76.8924 59.1684C76.8319 59.2399 76.8044 59.3334 76.8099 59.4214C76.8209 59.5149 76.8649 59.5974 76.9474 59.6634C76.9914 59.7019 77.0354 59.7349 77.0959 59.7844C77.2224 59.8834 77.3544 59.9934 77.4644 60.1089C77.7834 60.4554 78.0639 60.7799 78.3169 61.0989C78.3994 61.2089 78.4874 61.3244 78.5754 61.4674C78.2509 61.1154 77.9209 60.8074 77.6129 60.5269C77.3599 60.2959 77.0739 60.0924 76.8044 59.8944L76.7054 59.8229C76.5294 59.6964 76.3424 59.5809 76.1664 59.4709L76.0509 59.3994C75.9959 59.3664 75.9354 59.3499 75.8804 59.3334H75.8749C75.9244 59.2674 75.9739 59.2069 76.0179 59.1464C76.1059 59.0364 76.1939 58.9209 76.2764 58.7999C76.4359 58.5524 76.5734 58.2939 76.7109 58.0409C76.7879 57.8979 76.8649 57.7384 76.9529 57.5239C76.9914 57.4414 77.0134 57.3534 77.0354 57.2764L77.0519 57.2104C77.0574 57.1994 77.0574 57.1884 77.0629 57.1829C77.0739 57.1884 77.0849 57.1939 77.0959 57.2049C77.1784 57.2599 77.2609 57.3039 77.3379 57.3424C77.3984 57.3754 77.4589 57.4029 77.5139 57.4414L77.5964 57.4909C77.8604 57.6504 78.1299 57.8209 78.3829 57.9969C78.7514 58.2499 79.1089 58.5854 79.4774 59.0199C79.6754 59.2509 79.8514 59.5039 80.0494 59.8119C80.1759 59.9989 80.3024 60.2189 80.4454 60.4994C80.5169 60.6369 80.5719 60.7854 80.6269 60.9284L80.6489 60.9889C80.6764 61.0659 80.7039 61.1484 80.7369 61.2364C80.7699 61.3299 80.8029 61.4289 80.8414 61.5279C81.0394 62.0284 81.1659 62.6059 81.2374 63.3429C81.3529 64.5309 81.3254 65.4879 81.1604 66.3569C81.1384 66.4614 81.1219 66.5659 81.0999 66.6649C81.0559 66.9124 81.0064 67.1709 80.9459 67.4184C80.9019 67.5889 80.8304 67.7649 80.7589 67.9299C80.7534 67.9134 80.7424 67.8969 80.7369 67.8749C80.6929 67.7704 80.6489 67.6604 80.5994 67.5559C80.5114 67.3689 80.4124 67.1984 80.3079 67.0169Z" fill="#4F8782"></path> <path d="M33.1635 43.4437C33.862 43.8562 34.4175 44.4172 34.841 45.1212C35.259 45.8252 35.468 46.6007 35.468 47.4477C35.468 48.3057 35.259 49.0812 34.841 49.7797C34.423 50.4782 33.862 51.0337 33.1635 51.4572C32.465 51.8752 31.6895 52.0842 30.8315 52.0842H21.4375L22.3065 50.8467V34.7922L21.4375 33.5547C22.9225 33.5547 24.16 33.5547 25.1445 33.5547C26.129 33.5547 26.998 33.5547 27.746 33.5547C28.494 33.5547 28.912 33.5547 28.9945 33.5547C29.88 33.5547 30.6885 33.7692 31.42 34.2037C32.146 34.6382 32.729 35.2212 33.1635 35.9472C33.598 36.6732 33.8125 37.4817 33.8125 38.3727C33.8125 39.3792 33.5375 40.2757 32.9875 41.0677C32.4375 41.8597 31.717 42.4427 30.8315 42.8222C31.6895 42.8222 32.465 43.0312 33.1635 43.4437ZM24.699 33.9617V42.6187H29.352C29.869 42.5912 30.2925 42.3987 30.628 42.0412C31.0295 41.6012 31.3375 41.1062 31.563 40.5562C31.7885 40.0007 31.8985 39.4122 31.8985 38.7797C31.8985 37.9767 31.717 37.2342 31.3595 36.5577C30.9965 35.8812 30.5125 35.3202 29.902 34.8802C29.0715 34.2697 28.131 33.9617 27.075 33.9617H24.699ZM28.648 51.6772C29.4565 51.6772 30.199 51.4792 30.8755 51.0832C31.5465 50.6872 32.0855 50.1537 32.4815 49.4827C32.883 48.8117 33.081 48.0692 33.081 47.2552C33.0205 46.2982 32.729 45.4512 32.1955 44.7252C31.662 43.9992 30.969 43.4657 30.122 43.1302C29.924 43.0532 29.715 43.0147 29.495 43.0147C28.5435 43.0147 27.757 43.0147 27.1355 43.0147C26.514 43.0147 25.9695 43.0147 25.4965 43.0147C25.0235 43.0147 24.7595 43.0147 24.71 43.0147V51.6717H28.648V51.6772Z" fill="#4F8782"></path> <path d="M53.9578 50.8473L55.3548 52.0848H50.9988L51.5378 51.3203L49.9923 47.7453H39.1298L37.7878 50.8418L38.1178 52.0793H35.9453L37.3423 50.8418L44.3383 34.7763L43.8048 33.5498H46.4228L53.9578 50.8473ZM39.4818 46.9478H49.6458L44.5693 35.2878L39.4818 46.9478Z" fill="#4F8782"></path> <path d="M68.0502 43.4447C68.7487 43.8572 69.3042 44.4182 69.7277 45.1222C70.1457 45.8262 70.3547 46.6017 70.3547 47.4487C70.3547 48.3067 70.1457 49.0822 69.7277 49.7807C69.3097 50.4792 68.7487 51.0347 68.0502 51.4582C67.3517 51.8762 66.5762 52.0852 65.7182 52.0852H56.3242L57.1932 50.8477V34.7932L56.3242 33.5557C57.8092 33.5557 59.0467 33.5557 60.0312 33.5557C61.0157 33.5557 61.8847 33.5557 62.6327 33.5557C63.3807 33.5557 63.7987 33.5557 63.8812 33.5557C64.7667 33.5557 65.5752 33.7702 66.3067 34.2047C67.0327 34.6392 67.6157 35.2222 68.0502 35.9482C68.4847 36.6742 68.6992 37.4827 68.6992 38.3737C68.6992 39.3802 68.4242 40.2767 67.8742 41.0687C67.3242 41.8607 66.6037 42.4437 65.7182 42.8232C66.5762 42.8232 67.3517 43.0322 68.0502 43.4447ZM59.5912 33.9627V42.6197H64.2442C64.7612 42.5922 65.1847 42.3997 65.5202 42.0422C65.9217 41.6022 66.2297 41.1072 66.4552 40.5572C66.6807 40.0017 66.7907 39.4132 66.7907 38.7807C66.7907 37.9777 66.6092 37.2352 66.2517 36.5587C65.8887 35.8822 65.4047 35.3212 64.7942 34.8812C63.9637 34.2707 63.0232 33.9627 61.9672 33.9627H59.5912ZM63.5347 51.6782C64.3432 51.6782 65.0857 51.4802 65.7622 51.0842C66.4332 50.6882 66.9722 50.1547 67.3682 49.4837C67.7697 48.8127 67.9677 48.0702 67.9677 47.2562C67.9072 46.2992 67.6157 45.4522 67.0822 44.7262C66.5487 44.0002 65.8557 43.4667 65.0087 43.1312C64.8107 43.0542 64.6017 43.0157 64.3817 43.0157C63.4302 43.0157 62.6437 43.0157 62.0222 43.0157C61.4007 43.0157 60.8562 43.0157 60.3832 43.0157C59.9102 43.0157 59.6462 43.0157 59.5967 43.0157V51.6727H63.5347V51.6782Z" fill="#4F8782"></path> <path d="M80.2934 41.9873V50.8588L81.1624 52.0853H80.2934H77.8899H77.0209L77.8899 50.8588V42.8288L71.4824 34.7988L69.6289 33.5723H74.4359L74.1169 34.2598L80.0349 41.6738L86.4809 34.3368L86.2774 33.5723H88.5544L86.6019 34.7988L80.2934 41.9873Z" fill="#4F8782"></path> <path d="M31.728 68.0626H31.739C31.739 68.0681 31.7445 68.0736 31.75 68.0736C32.124 68.4861 32.4155 68.9591 32.6245 69.4871C32.8335 70.0151 32.938 70.5816 32.938 71.1701C32.938 71.6266 32.8775 72.0611 32.7565 72.4736C32.4595 73.4471 31.9205 74.2336 31.134 74.8441C30.3475 75.4546 29.4235 75.7736 28.362 75.8066H22.422L21.4375 73.2766L23.1645 74.6681L23.1865 74.6791C23.7695 75.1686 24.4515 75.4106 25.2215 75.4106H27.3335C27.9715 75.4106 28.549 75.2566 29.0715 74.9431C29.594 74.6296 30.0065 74.2171 30.3145 73.6946C30.6225 73.1721 30.7765 72.5946 30.7765 71.9676C30.7765 71.3626 30.6335 70.8071 30.342 70.2956V70.2846C30.298 70.2021 30.243 70.1196 30.188 70.0426C30.155 69.9931 30.1165 69.9326 30.0615 69.8666C30.012 69.8006 29.957 69.7346 29.9075 69.6686C29.858 69.6026 29.7975 69.5311 29.726 69.4541L23.6265 63.3436C22.961 62.6561 22.631 61.8311 22.631 60.8741C22.631 60.3186 22.752 59.8016 22.9885 59.3176C23.2855 58.7071 23.72 58.2176 24.292 57.8436C24.864 57.4751 25.5075 57.2881 26.2225 57.2881C26.228 57.2881 26.2335 57.2881 26.2445 57.2881C26.25 57.2881 26.2555 57.2881 26.2665 57.2881H26.2775H32.003L32.9875 59.8071L31.2605 58.4156H31.2495C30.6665 57.9261 29.979 57.6841 29.2035 57.6841H27.207C27.2015 57.6841 27.196 57.6841 27.185 57.6841C27.1795 57.6841 27.174 57.6841 27.163 57.6841C26.4975 57.6841 25.931 57.9206 25.4635 58.3881C24.996 58.8556 24.7595 59.4221 24.7595 60.0876C24.7595 60.7696 25.007 61.3471 25.502 61.8256L26.8935 63.2171L31.728 68.0626Z" fill="#4F8782"></path> <path d="M41.8641 57.2825C42.9696 57.2825 43.9761 57.552 44.8781 58.091C45.7801 58.63 46.5061 59.356 47.0451 60.258C47.5841 61.16 47.8536 62.1665 47.8536 63.272C47.8536 64.372 47.5841 65.373 47.0451 66.2805C46.5061 67.1825 45.7801 67.9085 44.8781 68.4475C43.9761 68.9865 42.9696 69.256 41.8641 69.256H37.6951V74.5635L38.5641 75.801H34.4336L35.3026 74.5635V58.509L34.4336 57.2715H41.8641V57.2825ZM41.8641 68.8545C42.5296 68.8545 43.1291 68.6015 43.6681 68.101C44.2071 67.6005 44.6416 66.924 44.9606 66.077C45.2851 65.23 45.4446 64.295 45.4446 63.272C45.4446 62.2435 45.2851 61.303 44.9606 60.456C44.6361 59.609 44.2071 58.938 43.6681 58.432C43.1291 57.9315 42.5241 57.6785 41.8641 57.6785H37.6951V68.849H41.8641V68.8545Z" fill="#4F8782"></path> <path d="M63.7 74.5684L65.097 75.8059H60.741L61.28 75.0414L59.7235 71.4719H48.872L47.53 74.5684L47.86 75.8059H45.6875L47.0845 74.5684L54.0805 58.5029L53.547 57.2764H56.165L63.7 74.5684ZM49.224 70.6689H59.388L54.3115 59.0089L49.224 70.6689Z" fill="#4F8782"></path> </svg> 