<svg id="visual" viewBox="0 0 1920 1080" width="1920" height="1080" xmlns="http://www.w3.org/2000/svg" xmlns:xlink="http://www.w3.org/1999/xlink" version="1.1"><rect x="0" y="0" width="1920" height="1080" fill="#BE9698"></rect><path d="M0 612L45.7 635.8C91.3 659.7 182.7 707.3 274.2 704.7C365.7 702 457.3 649 548.8 681.8C640.3 714.7 731.7 833.3 823 849.2C914.3 865 1005.7 778 1097 761C1188.3 744 1279.7 797 1371.2 822.2C1462.7 847.3 1554.3 844.7 1645.8 821.3C1737.3 798 1828.7 754 1874.3 732L1920 710L1920 1081L1874.3 1081C1828.7 1081 1737.3 1081 1645.8 1081C1554.3 1081 1462.7 1081 1371.2 1081C1279.7 1081 1188.3 1081 1097 1081C1005.7 1081 914.3 1081 823 1081C731.7 1081 640.3 1081 548.8 1081C457.3 1081 365.7 1081 274.2 1081C182.7 1081 91.3 1081 45.7 1081L0 1081Z" fill="#FFFDFC" stroke-linecap="round" stroke-linejoin="miter"></path></svg>