<svg id="visual" viewBox="0 0 900 600" width="900" height="600" xmlns="http://www.w3.org/2000/svg" xmlns:xlink="http://www.w3.org/1999/xlink" version="1.1"><rect x="0" y="0" width="900" height="600" fill="#9A729D"></rect><path d="M0 267L21.5 292.7C43 318.3 86 369.7 128.8 397.3C171.7 425 214.3 429 257.2 406C300 383 343 333 385.8 345.5C428.7 358 471.3 433 514.2 469.2C557 505.3 600 502.7 642.8 481.7C685.7 460.7 728.3 421.3 771.2 415.7C814 410 857 438 878.5 452L900 466L900 601L878.5 601C857 601 814 601 771.2 601C728.3 601 685.7 601 642.8 601C600 601 557 601 514.2 601C471.3 601 428.7 601 385.8 601C343 601 300 601 257.2 601C214.3 601 171.7 601 128.8 601C86 601 43 601 21.5 601L0 601Z" fill="#EEFCFE" stroke-linecap="round" stroke-linejoin="miter"></path></svg>