<svg id="visual" viewBox="0 0 900 600" width="900" height="600" xmlns="http://www.w3.org/2000/svg" xmlns:xlink="http://www.w3.org/1999/xlink" version="1.1"><rect x="0" y="0" width="900" height="600" fill="#A57865"></rect><path d="M0 414L30 423.2C60 432.3 120 450.7 180 423.2C240 395.7 300 322.3 360 325.7C420 329 480 409 540 456C600 503 660 517 720 503.7C780 490.3 840 449.7 870 429.3L900 409L900 601L870 601C840 601 780 601 720 601C660 601 600 601 540 601C480 601 420 601 360 601C300 601 240 601 180 601C120 601 60 601 30 601L0 601Z" fill="#FFFDFC" stroke-linecap="round" stroke-linejoin="miter"></path></svg>