<?xml version="1.0" encoding="UTF-8"?> <svg xmlns="http://www.w3.org/2000/svg" width="592" height="592" viewBox="0 0 592 592" fill="none"> <path d="M411.933 371.124C414.064 371.213 415.929 368.342 416.047 364.731C416.195 361.119 414.567 358.13 412.436 358.041C410.305 357.952 408.44 360.823 408.322 364.435C408.174 368.046 409.802 371.035 411.933 371.124Z" fill="#EBE5DA"></path> <path d="M372.746 369.585C374.877 369.674 376.742 366.803 376.86 363.192C377.008 359.58 375.38 356.591 373.249 356.502C371.118 356.413 369.253 359.284 369.134 362.896C368.986 366.536 370.614 369.526 372.746 369.585Z" fill="#EBE5DA"></path> <path d="M383.398 393.263C383.25 397.141 385.885 400.486 389.526 401.403C390.029 401.522 390.591 401.611 391.124 401.64C393.285 401.729 395.327 400.959 396.896 399.509C398.465 398.059 399.382 396.075 399.471 393.915C399.471 393.767 399.471 393.648 399.471 393.5C400.744 391.902 401.543 389.919 401.602 387.728C401.81 382.252 397.547 377.605 392.042 377.398C386.566 377.191 381.918 381.483 381.711 386.959C381.622 389.149 382.274 391.191 383.398 392.879C383.428 392.997 383.398 393.145 383.398 393.263ZM395.09 397.526C394.025 398.503 392.663 399.006 391.242 398.947C389.17 398.858 387.424 397.615 386.595 395.868C387.424 396.371 388.342 396.756 389.318 396.993C389.97 397.141 390.621 397.259 391.302 397.259C393.018 397.319 394.676 396.934 396.126 396.223C395.83 396.697 395.505 397.141 395.09 397.526ZM391.39 394.595C389.348 394.507 387.542 393.589 386.27 392.168C386.566 391.073 387.217 390.096 388.105 389.415C388.253 389.682 388.43 389.919 388.638 390.155C389.2 390.747 389.91 391.162 390.68 391.369C390.946 391.428 391.242 391.487 391.509 391.487C392.604 391.517 393.67 391.132 394.498 390.392C394.735 390.185 394.913 389.948 395.09 389.711C395.919 390.481 396.482 391.487 396.689 392.612C395.327 393.885 393.433 394.655 391.39 394.595ZM390.206 387.284C390.236 386.899 390.384 386.544 390.68 386.278C390.976 386.011 391.331 385.863 391.746 385.893C391.834 385.893 391.953 385.923 392.042 385.923C392.308 385.982 392.574 386.13 392.752 386.337C393.018 386.633 393.166 386.988 393.137 387.403C393.107 387.787 392.959 388.143 392.663 388.409C392.367 388.675 392.012 388.823 391.598 388.794C391.213 388.764 390.858 388.616 390.591 388.32C390.325 388.024 390.206 387.669 390.206 387.284ZM386.743 381.986C388.164 380.654 390.029 379.973 391.953 380.062C392.456 380.091 392.93 380.151 393.403 380.269C396.689 381.068 399.057 384.117 398.938 387.61C398.909 388.379 398.761 389.119 398.524 389.8C397.873 388.616 396.955 387.58 395.801 386.84C395.712 385.982 395.327 385.153 394.735 384.502C393.995 383.703 392.959 383.229 391.864 383.17C390.769 383.14 389.703 383.525 388.874 384.265C388.223 384.857 387.779 385.656 387.631 386.515C386.418 387.166 385.411 388.113 384.701 389.238C384.494 388.527 384.405 387.787 384.434 387.018C384.494 385.094 385.322 383.318 386.743 381.986Z" fill="#EBE5DA"></path> <path d="M360.675 325.482C359.018 326.932 357.479 328.767 355.821 331.283C354.519 333.237 353.512 335.368 352.831 337.558C351.884 340.518 351.47 343.271 351.559 345.994V346.024C351.588 346.468 351.647 346.942 351.677 347.386C351.766 348.51 351.884 349.694 352.032 350.849C352.121 351.441 352.299 351.855 352.654 352.092C352.802 352.181 353.009 352.299 353.335 352.299C353.423 352.299 353.542 352.299 353.66 352.27C354.667 352.062 354.578 351.145 354.548 350.671C354.548 350.612 354.548 350.523 354.519 350.464C354.489 349.99 354.459 349.546 354.43 349.073C354.341 347.682 354.223 346.231 354.193 344.84C354.104 342.087 354.726 339.216 356.176 335.812C356.679 334.628 357.419 333.355 358.396 332.082C359.728 330.336 361.09 328.738 362.451 327.376C363.31 326.488 364.375 325.748 365.382 325.008C365.559 324.86 365.767 324.742 365.944 324.594C367.039 323.794 368.135 323.054 369.259 322.403C369.881 322.018 370.562 321.693 371.183 321.338C371.746 321.042 372.367 320.716 372.93 320.39C373.818 319.887 374.676 319.325 375.505 318.792C375.831 318.585 376.156 318.378 376.482 318.17C376.955 317.874 377.429 317.608 377.873 317.312C378.939 316.661 380.063 316.01 381.099 315.24C383.171 313.671 385.155 311.925 387.019 310.297C388.233 309.231 389.18 307.81 389.831 306.123C390.098 305.442 389.92 304.614 389.713 303.903C389.624 303.548 389.239 303.37 388.914 303.222C388.795 303.163 388.707 303.134 388.618 303.074L388.233 302.867L388.026 303.252C387.967 303.341 387.907 303.43 387.878 303.518C387.73 303.755 387.582 303.992 387.493 304.288C387.434 304.525 387.434 304.762 387.434 304.969C387.434 305.176 387.434 305.383 387.375 305.502C386.753 306.834 385.865 308.018 384.74 308.965L384.503 309.172C383.171 310.297 381.78 311.481 380.359 312.576C378.82 313.76 377.429 314.737 376.067 315.566C375.12 316.158 374.084 316.72 373.107 317.253C372.427 317.638 371.687 318.022 371.006 318.437L370.384 318.792C368.904 319.65 367.365 320.568 365.915 321.545C364.198 322.729 362.363 324.031 360.675 325.482Z" fill="#EBE5DA"></path> <path d="M441.182 347.268C441.152 343.982 441.123 340.608 440.353 337.292C440.146 336.404 439.968 335.487 439.791 334.569C439.613 333.592 439.406 332.586 439.169 331.58C438.932 330.514 438.548 329.389 438.074 328.205C437.334 326.4 436.624 324.772 435.854 323.232C435.203 321.9 434.522 320.568 433.664 319.355C432.391 317.52 431.088 315.744 429.608 314.175C428.04 312.517 426.293 311.037 424.606 309.616L424.132 309.202C423.185 308.403 422.149 307.781 421.143 307.16C420.136 306.538 419.071 305.946 418.035 305.384L417.206 304.91C416.969 304.792 416.732 304.673 416.496 304.525C416.229 304.407 415.992 304.288 415.756 304.14C415.904 303.874 416.052 303.548 416.052 303.134L416.081 303.045C416.584 298.783 416.94 294.58 415.548 290.406L415.371 289.873C414.808 288.186 414.246 286.44 413.358 284.841C412.381 283.036 411.168 281.408 409.806 280.105C408.03 278.388 405.988 276.731 403.768 275.221C402.258 274.185 400.482 273.534 398.972 273.031C397.078 272.409 395.095 271.788 392.993 271.551C390.004 271.225 386.511 271.048 383.077 272.291C382.574 272.468 382.071 272.646 381.508 272.824C380.176 273.268 378.785 273.741 377.483 274.392C375.618 275.34 373.901 276.642 372.48 277.767C371.356 278.655 370.32 279.75 369.432 280.934C368.544 282.148 367.804 283.509 367.271 284.841C366.62 286.588 365.939 288.423 365.702 290.317C365.14 294.994 365.702 299.404 367.36 303.312C367.36 303.341 367.36 303.341 367.36 303.371C366.738 303.756 366.057 304.111 365.376 304.466L364.577 304.88C364.34 304.999 364.133 305.117 363.837 305.265C363.334 305.532 362.801 305.798 362.298 306.094C361.262 306.716 360.048 307.456 358.864 308.314C358.45 308.61 358.006 308.906 357.592 309.172C356.2 310.12 354.78 311.067 353.507 312.221C351.612 313.908 349.748 315.832 347.616 318.289C346.521 319.532 345.633 320.953 344.775 322.344L344.479 322.848C343.68 324.12 343.028 325.423 342.525 326.429L342.318 326.844C341.608 328.324 340.868 329.833 340.305 331.402C339.802 332.793 339.476 334.214 339.18 335.635L339.092 336.049C337.878 341.496 337.908 346.912 339.18 352.092C339.506 353.395 339.802 354.668 340.216 355.911C340.512 356.917 340.927 358.072 341.46 359.226C342.052 360.469 342.732 361.742 343.65 363.281C344.42 364.584 345.16 365.738 345.929 366.833C346.196 367.188 346.462 367.514 346.728 367.84C347.054 368.224 347.38 368.609 347.616 368.994C348.948 392.792 368.632 411.44 392.52 411.44C404.596 411.44 415.785 407.06 424.044 399.068C432.124 391.253 436.712 380.568 436.979 368.994H437.008C437.512 368.224 438.044 367.455 438.37 366.537C439.14 364.406 439.732 362.245 440.176 360.173C440.975 356.207 441.36 352.329 441.3 348.629L441.182 347.268ZM367.892 307.367C368.425 307.1 368.928 306.834 369.52 306.508C370.349 306.064 371.237 305.591 372.096 305.176C372.54 304.969 372.984 304.762 373.487 304.555C373.872 304.407 374.256 304.229 374.641 304.052C375.352 303.726 376.062 303.341 376.743 302.986L377.335 302.69C377.572 302.572 377.808 302.453 378.045 302.305C378.46 302.068 378.844 301.861 379.229 301.684C381.834 300.529 384.291 298.931 386.511 296.948C388.228 295.408 389.352 293.78 389.915 292.004C390.004 291.768 390.092 291.531 390.181 291.264C390.329 290.85 390.507 290.436 390.625 289.992C390.773 289.37 390.714 288.808 390.388 288.393C390.181 288.097 389.796 287.742 389.056 287.653C388.968 287.653 388.879 287.653 388.79 287.653C388.228 287.653 387.251 287.86 386.955 289.281C386.57 290.998 385.682 292.596 384.261 293.958C382.84 295.349 381.212 296.504 379.407 297.421C378.637 297.806 377.868 298.22 377.098 298.605C376.24 299.049 375.381 299.493 374.493 299.937C373.724 300.322 372.924 300.677 372.125 301.062L371.03 301.565C370.882 301.624 370.734 301.713 370.586 301.802C370.556 301.713 370.497 301.595 370.468 301.476L370.26 300.855C369.935 299.789 369.58 298.694 369.402 297.599C368.928 294.757 368.928 292.212 369.343 289.814C369.639 288.097 370.32 286.38 371.415 284.545C372.451 282.769 373.96 281.2 376.121 279.572C376.743 279.099 377.453 278.714 378.252 278.329C378.756 278.063 379.259 277.796 379.762 277.5C381.449 276.464 383.314 275.991 384.942 275.636C386.422 275.31 387.961 275.221 389.5 275.103C391.868 274.925 394.384 275.31 396.989 276.168C398.144 276.553 399.268 277.145 400.393 277.737C400.748 277.915 401.104 278.122 401.488 278.3C403.708 279.424 405.603 280.875 407.083 282.651C408.267 284.042 409.332 285.581 410.28 287.239C412.529 291.116 413.24 295.645 412.529 301.447C412.352 302.808 411.937 304.2 411.523 305.561C411.404 305.946 411.286 306.36 411.168 306.745C410.842 307.87 410.487 308.876 410.043 309.764C409.48 311.008 408.888 312.192 408.178 313.228C406.846 315.122 405.573 316.75 404.271 318.23C403.56 319.059 402.672 319.799 401.814 320.509C401.548 320.746 401.281 320.953 401.015 321.19C399.801 322.256 398.558 323.262 397.344 324.239C396.101 325.216 394.828 326.222 393.556 327.199L389.204 330.603C388.257 331.372 387.251 332.142 386.274 332.912C385.8 333.296 385.268 333.652 384.764 334.007C384.35 334.303 383.936 334.599 383.551 334.895C382.9 335.398 382.219 335.901 381.568 336.404L381.36 336.552C380.739 337.026 380.088 337.529 379.466 338.003C378.667 338.595 377.897 339.187 377.098 339.779L374.612 341.614C373.664 342.324 372.658 343.064 371.711 343.804L370.941 344.396C369.55 345.462 367.981 346.676 366.472 347.889C365.051 349.044 363.571 350.316 362.091 351.648L361.292 352.359C359.516 353.957 357.71 355.615 355.993 357.332C354.661 358.664 353.418 360.144 352.234 361.564L351.287 362.66C350.813 363.192 350.399 363.755 349.925 364.347C349.718 364.643 349.481 364.909 349.244 365.205C348.889 364.702 348.564 364.169 348.149 363.577C347.587 362.748 346.995 361.86 346.432 361.002C346.077 360.41 345.752 359.759 345.456 359.108L345.13 358.427C344.716 357.568 344.301 356.68 343.946 355.822C343.561 354.875 343.176 353.839 342.91 352.803C342.525 351.382 342.229 350.168 342.081 348.955C341.933 347.771 341.844 346.528 341.785 345.284C341.756 344.752 341.726 344.219 341.696 343.745C341.667 340.785 342.081 337.796 342.969 334.836C343.532 332.941 344.331 331.076 345.13 329.36C345.9 327.702 346.817 325.778 347.942 324.002C348.948 322.433 350.132 320.864 351.524 319.355C352.944 317.786 354.513 316.247 356.348 314.648C357.355 313.79 358.48 312.991 359.604 312.221L360.463 311.629C361.44 310.948 362.535 310.238 363.808 309.468C364.311 309.143 364.873 308.876 365.465 308.58L365.909 308.344C366.205 308.196 366.501 308.048 366.797 307.9C367.212 307.722 367.567 307.544 367.892 307.367ZM353.596 365.768L354.484 364.672C357.029 361.505 360.019 358.427 364.192 354.668C365.495 353.484 366.945 352.329 368.307 351.204C368.869 350.731 369.432 350.287 369.994 349.813L370.971 348.984C371.8 348.274 372.688 347.534 373.576 346.883C374.345 346.291 375.115 345.728 375.914 345.196L376.003 345.136C376.565 344.752 377.128 344.337 377.66 343.923C379.644 342.472 381.627 340.963 383.551 339.512C383.906 339.246 384.232 338.98 384.587 338.713C385.12 338.299 385.682 337.855 386.185 337.5C386.215 337.5 386.304 337.47 386.629 337.44C390.921 337.292 394.71 337.618 398.203 338.417C400.482 338.95 402.732 339.749 404.952 340.548L405.07 340.578C406.876 341.229 408.385 341.88 409.688 342.62C410.753 343.212 411.76 343.893 412.736 344.544L412.825 344.604C413.328 344.959 413.861 345.314 414.394 345.64C416.821 347.208 418.893 349.221 420.788 351.175C423.57 354.046 425.701 356.858 427.359 359.729L427.507 359.996C428.247 361.298 429.016 362.63 429.727 363.992L430.526 365.353L430.585 365.294L432.924 368.846C432.716 379.384 428.572 389.092 421.202 396.196C413.684 403.448 403.472 407.444 392.431 407.444C370.586 407.444 352.619 390.395 351.494 368.609C351.849 368.047 352.589 367.04 353.596 365.768ZM432.213 360.676C432.036 360.38 431.858 360.055 431.68 359.759C431.177 358.871 430.615 357.953 429.964 356.917C428.987 355.378 428.099 354.016 427.063 352.684C426.086 351.412 424.932 350.139 423.481 348.629C422.179 347.297 420.758 345.876 419.189 344.574C418.064 343.627 416.821 342.798 415.637 342.028L414.927 341.555C413.684 340.726 412.411 339.956 411.316 339.305C410.664 338.92 409.984 338.565 409.303 338.299C408.859 338.121 408.415 337.944 407.912 337.736C405.721 336.819 403.472 335.901 401.044 335.428C400.216 335.28 399.387 335.072 398.499 334.895C397.315 334.628 396.072 334.362 394.828 334.155C393.704 333.977 392.579 333.918 391.454 333.859C391.306 333.859 391.128 333.859 390.98 333.829C391.306 333.592 391.661 333.326 391.987 333.089L392.253 332.882C393.674 331.816 395.272 330.632 396.812 329.419C398.38 328.176 399.949 326.844 401.488 325.541C402.14 324.979 402.791 324.446 403.442 323.884C403.649 323.706 403.856 323.528 404.123 323.292C404.596 322.848 405.07 322.433 405.544 322.167C405.632 322.137 405.928 322.137 406.047 322.226C407.468 322.936 408.948 323.706 410.309 324.624C412.144 325.867 413.565 326.992 414.808 328.146C417.147 330.307 419.189 332.379 421.084 334.451C422.268 335.753 423.363 337.174 424.458 338.595C424.872 339.128 425.287 339.69 425.731 340.223C425.938 340.489 426.145 340.785 426.382 341.111C426.796 341.673 427.211 342.265 427.714 342.798C428.306 343.39 429.224 343.597 429.875 343.656C430.378 343.716 430.852 343.538 431.207 343.212C431.592 342.857 431.799 342.295 431.769 341.732V341.348C431.769 340.844 431.74 340.282 431.562 339.72C431.236 338.743 430.822 337.796 430.408 336.878L430.2 336.434C430.023 336.02 429.816 335.605 429.579 335.161C429.46 334.895 429.312 334.628 429.194 334.332C427.773 331.254 425.849 328.472 424.132 326.074C422.386 323.647 420.284 321.575 418.449 319.828C417.798 319.207 417.028 318.644 416.111 318.052C415.489 317.668 414.335 317.875 413.832 318.437C413.506 318.822 413.358 319.325 413.388 319.799C413.447 320.302 413.684 320.746 414.128 321.101C414.364 321.308 414.601 321.486 414.927 321.752C415.608 322.285 416.318 322.877 416.91 323.499C418.627 325.364 420.136 327.11 421.498 328.827C421.942 329.419 422.416 330.04 422.889 330.81C421.143 328.916 419.367 327.258 417.709 325.748C416.348 324.505 414.808 323.41 413.358 322.344L412.825 321.96C411.878 321.279 410.872 320.657 409.924 320.065L409.303 319.68C409.007 319.503 408.681 319.414 408.385 319.325H408.356C408.622 318.97 408.888 318.644 409.125 318.319C409.599 317.727 410.072 317.105 410.516 316.454C411.375 315.122 412.115 313.731 412.855 312.369C413.269 311.6 413.684 310.741 414.157 309.587C414.364 309.143 414.483 308.669 414.601 308.255L414.69 307.9C414.72 307.84 414.72 307.781 414.749 307.752C414.808 307.781 414.868 307.811 414.927 307.87C415.371 308.166 415.815 308.403 416.229 308.61C416.555 308.788 416.88 308.936 417.176 309.143L417.62 309.409C419.041 310.268 420.492 311.185 421.853 312.132C423.836 313.494 425.76 315.3 427.744 317.638C428.809 318.881 429.756 320.243 430.822 321.9C431.503 322.907 432.184 324.091 432.953 325.6C433.338 326.34 433.634 327.14 433.93 327.909L434.048 328.235C434.196 328.649 434.344 329.093 434.522 329.567C434.7 330.07 434.877 330.603 435.084 331.136C436.15 333.829 436.831 336.937 437.216 340.904C437.837 347.297 437.689 352.448 436.801 357.124C436.683 357.687 436.594 358.249 436.476 358.782C436.239 360.114 435.972 361.505 435.647 362.837C435.41 363.755 435.025 364.702 434.64 365.59C434.611 365.501 434.552 365.412 434.522 365.294C434.285 364.732 434.048 364.14 433.782 363.577C433.308 362.571 432.776 361.653 432.213 360.676Z" fill="#EBE5DA"></path> <path d="M178.482 233.815C182.241 236.035 185.231 239.054 187.51 242.843C189.76 246.631 190.885 250.805 190.885 255.363C190.885 259.981 189.76 264.155 187.51 267.914C185.261 271.673 182.241 274.663 178.482 276.942C174.723 279.191 170.549 280.316 165.932 280.316H115.375L120.052 273.656V187.254L115.375 180.594C123.367 180.594 130.027 180.594 135.325 180.594C140.624 180.594 145.301 180.594 149.326 180.594C153.352 180.594 155.601 180.594 156.045 180.594C160.811 180.594 165.162 181.748 169.099 184.087C173.006 186.425 176.144 189.563 178.482 193.47C180.821 197.377 181.975 201.728 181.975 206.523C181.975 211.94 180.495 216.765 177.535 221.027C174.575 225.29 170.697 228.427 165.932 230.47C170.549 230.47 174.723 231.595 178.482 233.815ZM132.928 182.784V229.375H157.969C160.752 229.227 163.031 228.191 164.837 226.267C166.997 223.899 168.655 221.235 169.869 218.275C171.082 215.285 171.674 212.118 171.674 208.714C171.674 204.392 170.697 200.396 168.773 196.755C166.82 193.115 164.215 190.095 160.929 187.727C156.46 184.442 151.398 182.784 145.715 182.784H132.928ZM154.181 278.126C158.532 278.126 162.528 277.06 166.169 274.929C169.78 272.798 172.681 269.927 174.812 266.315C176.973 262.704 178.038 258.708 178.038 254.327C177.713 249.177 176.144 244.619 173.273 240.711C170.401 236.804 166.672 233.933 162.113 232.127C161.048 231.713 159.923 231.506 158.739 231.506C153.618 231.506 149.385 231.506 146.041 231.506C142.696 231.506 139.765 231.506 137.22 231.506C134.674 231.506 133.253 231.506 132.987 231.506V278.096H154.181V278.126Z" fill="#EBE5DA"></path> <path d="M290.393 273.655L297.912 280.315H274.468L277.369 276.2L269.052 256.96H210.592L203.369 273.625L205.145 280.285H193.453L200.972 273.625L238.623 187.163L235.752 180.562H249.841L290.393 273.655ZM212.486 252.668H267.187L239.866 189.916L212.486 252.668Z" fill="#EBE5DA"></path> <path d="M366.232 233.815C369.991 236.035 372.981 239.054 375.26 242.843C377.51 246.631 378.635 250.805 378.635 255.363C378.635 259.981 377.51 264.155 375.26 267.914C373.011 271.673 369.991 274.663 366.232 276.942C362.473 279.191 358.299 280.316 353.682 280.316H303.125L307.802 273.656V187.254L303.125 180.594C311.117 180.594 317.777 180.594 323.075 180.594C328.374 180.594 333.051 180.594 337.076 180.594C341.102 180.594 343.351 180.594 343.795 180.594C348.561 180.594 352.912 181.748 356.849 184.087C360.756 186.425 363.894 189.563 366.232 193.47C368.571 197.377 369.725 201.728 369.725 206.523C369.725 211.94 368.245 216.765 365.285 221.027C362.325 225.29 358.447 228.427 353.682 230.47C358.299 230.47 362.473 231.595 366.232 233.815ZM320.707 182.784V229.375H345.749C348.531 229.227 350.811 228.191 352.616 226.267C354.777 223.899 356.435 221.235 357.648 218.275C358.862 215.285 359.454 212.118 359.454 208.714C359.454 204.392 358.477 200.396 356.553 196.755C354.599 193.115 351.995 190.095 348.709 187.727C344.239 184.442 339.178 182.784 333.495 182.784H320.707ZM341.931 278.126C346.282 278.126 350.278 277.06 353.919 274.929C357.53 272.798 360.431 269.927 362.562 266.315C364.723 262.704 365.788 258.708 365.788 254.327C365.463 249.177 363.894 244.619 361.023 240.711C358.151 236.804 354.422 233.933 349.863 232.127C348.798 231.713 347.673 231.506 346.489 231.506C341.368 231.506 337.135 231.506 333.791 231.506C330.446 231.506 327.515 231.506 324.97 231.506C322.424 231.506 321.003 231.506 320.737 231.506V278.096H341.931V278.126Z" fill="#EBE5DA"></path> <path d="M432.129 225.968V273.712L436.806 280.313H432.129H419.194H414.517L419.194 273.712V230.496L384.71 187.28L374.734 180.68H400.605L398.888 184.38L430.738 224.28L465.429 184.794L464.334 180.68H476.588L466.08 187.28L432.129 225.968Z" fill="#EBE5DA"></path> <path d="M170.757 366.299H170.816C170.816 366.329 170.845 366.358 170.875 366.358C172.888 368.578 174.457 371.124 175.581 373.965C176.706 376.807 177.269 379.856 177.269 383.023C177.269 385.48 176.943 387.818 176.292 390.038C174.693 395.277 171.793 399.51 167.56 402.796C163.327 406.081 158.354 407.798 152.641 407.976H120.673L115.375 394.36L124.669 401.848L124.788 401.908C127.925 404.542 131.596 405.844 135.74 405.844H147.106C150.54 405.844 153.648 405.016 156.46 403.328C159.272 401.641 161.492 399.421 163.149 396.609C164.807 393.797 165.636 390.689 165.636 387.315C165.636 384.059 164.866 381.069 163.297 378.316V378.257C163.061 377.813 162.765 377.369 162.469 376.955C162.291 376.688 162.084 376.363 161.788 376.008C161.521 375.653 161.225 375.297 160.959 374.942C160.693 374.587 160.367 374.202 159.982 373.788L127.156 340.902C123.574 337.202 121.798 332.762 121.798 327.612C121.798 324.622 122.449 321.84 123.722 319.235C125.321 315.949 127.659 313.315 130.737 311.302C133.816 309.319 137.279 308.312 141.127 308.312C141.157 308.312 141.186 308.312 141.245 308.312C141.275 308.312 141.305 308.312 141.364 308.312H141.423H172.237L177.535 321.869L168.241 314.38H168.181C165.044 311.746 161.344 310.444 157.17 310.444H146.425C146.396 310.444 146.366 310.444 146.307 310.444C146.277 310.444 146.248 310.444 146.189 310.444C142.607 310.444 139.558 311.716 137.042 314.232C134.526 316.748 133.253 319.797 133.253 323.379C133.253 327.049 134.585 330.157 137.249 332.732L144.738 340.221L170.757 366.299Z" fill="#EBE5DA"></path> <path d="M225.302 308.286C231.252 308.286 236.669 309.736 241.523 312.637C246.377 315.538 250.285 319.445 253.185 324.299C256.086 329.154 257.536 334.571 257.536 340.52C257.536 346.44 256.086 351.827 253.185 356.711C250.285 361.566 246.377 365.473 241.523 368.374C236.669 371.275 231.252 372.725 225.302 372.725H202.865V401.289L207.542 407.949H185.312L189.989 401.289V314.887L185.312 308.227H225.302V308.286ZM225.302 370.564C228.884 370.564 232.11 369.203 235.011 366.509C237.912 363.815 240.25 360.175 241.967 355.616C243.713 351.058 244.572 346.026 244.572 340.52C244.572 334.985 243.713 329.923 241.967 325.365C240.221 320.807 237.912 317.195 235.011 314.472C232.11 311.779 228.854 310.417 225.302 310.417H202.865V370.535H225.302V370.564Z" fill="#EBE5DA"></path> <path d="M342.815 401.32L350.333 407.98H326.89L329.791 403.866L321.414 384.655H263.013L255.791 401.32L257.567 407.98H245.875L253.393 401.32L291.045 314.859L288.173 308.258H302.263L342.815 401.32ZM264.908 380.334H319.609L292.288 317.582L264.908 380.334Z" fill="#EBE5DA"></path> </svg> 